<?xml version="1.0" encoding="UTF-8"?>
<svg width="77px" height="76px" viewBox="0 0 77 76" version="1.1" xmlns="http://www.w3.org/2000/svg" xmlns:xlink="http://www.w3.org/1999/xlink">
    <g stroke="none" stroke-width="1" fill="none" fill-rule="evenodd">
        <g transform="translate(-99.000000, -56.000000)" fill="#A1916C">
            <path d="M144.48349,96.5814224 C145.00731,96.6121859 145.514368,96.6918913 146.043775,96.6918913 C151.552966,96.6918913 157.426735,94.927185 162.588109,91.4495111 C163.757275,90.6622452 164.828662,89.8190456 165.827412,88.9338958 L165.827412,118.740931 L144.48349,96.5814224 Z M108.855344,122.656286 L108.855344,97.2596177 L132.110162,74.4121251 L132.110162,122.656286 L108.855344,122.656286 Z M127.771534,65.6235523 L108.855344,84.2103001 L108.855344,65.6235523 L127.771534,65.6235523 Z M164.614943,65.6235523 C166.1878,73.4290914 163.842483,79.3818288 157.39321,83.7222791 C152.171772,87.2419032 145.922249,88.2529037 141.411809,86.588878 L141.411809,65.6235523 L164.614943,65.6235523 Z M99.5536963,56.312 L99.5536963,131.969236 L141.411809,131.969236 L141.411809,106.80749 L165.679346,132 L175.12906,131.969236 L175.12906,56.312 L99.5536963,56.312 Z" id="Fill-1"></path>
        </g>
    </g>
</svg>
